<svg width="216" height="301" viewBox="0 0 216 301" fill="none" xmlns="http://www.w3.org/2000/svg">
<path d="M62.275 177.494V44.4239C62.275 41.7952 63.6046 39.3449 65.8084 37.912C67.9617 36.512 70.6678 36.267 73.0375 37.2575L74.0511 37.6811C77.7147 39.2124 80.1 42.7945 80.1 46.7653V138.6C80.1 140.683 80.6975 142.723 81.8218 144.477L81.8968 144.594C84.8458 149.196 90.7809 150.848 95.6836 148.433C99.4167 146.593 101.751 142.762 101.673 138.601L99.5645 25.0757C99.5082 22.0413 100.883 19.1573 103.276 17.2904C106.558 14.7297 111.112 14.5632 114.573 16.8773L115.127 17.248C117.951 19.1367 119.696 22.2678 119.815 25.6632L123.968 143.924C124.139 148.806 128.146 152.674 133.031 152.674C138.04 152.674 142.1 148.614 142.1 143.605V43.8967C142.1 39.3557 145.781 35.6744 150.322 35.6744C154.797 35.6744 158.449 39.2397 158.493 43.7137C158.885 83.1494 157.457 151.998 167.287 152.674C171.572 152.969 174.892 152.475 177.132 151.52C181.777 149.541 180.03 142.634 180.646 137.623L186.428 90.6153C186.783 87.7276 189.236 85.5581 192.145 85.5581C193.83 85.5581 195.43 86.2956 196.525 87.5764L198.243 89.5874C200.022 91.6698 201 94.3189 201 97.058V185.548C201 186.607 200.916 187.665 200.748 188.712L188.528 264.985C187.591 270.831 184.112 275.962 179.027 278.996L172.022 283.175C168.923 285.024 165.383 286 161.775 286H129.7H100.683C97.3472 286 94.0648 285.166 91.1341 283.573L79.0482 277.007C75.6867 275.18 72.9196 272.428 71.075 269.076L16.2707 169.495C15.4728 168.045 15.4205 166.3 16.1302 164.805L16.3505 164.341C18.0083 160.849 20.496 157.816 23.5963 155.507C25.696 153.943 28.6661 154.381 30.2262 156.483L49.0589 181.862C51.2874 184.865 55.4193 185.709 58.647 183.821C60.894 182.506 62.275 180.098 62.275 177.494Z" stroke="#FD0303" stroke-width="30"/>
<path d="M89.6302 159.703L160.595 163.133C172.532 163.71 181.302 174.558 179.365 186.351L168.936 249.853C167.27 260 158.18 267.23 147.919 266.571L97.5527 263.336C90.9506 262.912 84.9853 259.25 81.6184 253.555L57.2305 212.304C53.4066 205.836 53.5305 197.771 57.5511 191.424L71.7692 168.978C75.6205 162.898 82.4415 159.356 89.6302 159.703Z" stroke="#FD0303" stroke-width="30"/>
<rect x="66" y="148.993" width="107" height="104.532" fill="#FD0303"/>
<path d="M60.32 219.64C57.3867 219.64 54.1067 219.533 50.48 219.32C46.9067 219.107 43.7333 218.84 40.96 218.52V212.2C47.8933 212.893 53.68 213.24 58.32 213.24C61.2 213.24 63.4667 213.133 65.12 212.92C66.8267 212.653 68.2667 212.2 69.44 211.56C70.5067 210.92 71.2 209.987 71.52 208.76C71.84 207.48 72 205.8 72 203.72C72 201.213 71.8667 199.453 71.6 198.44C71.3333 197.373 70.6933 196.6 69.68 196.12C68.72 195.64 67.04 195.293 64.64 195.08L51.04 193.56C47.7333 193.187 45.2267 192.413 43.52 191.24C41.8667 190.013 40.7467 188.44 40.16 186.52C39.6267 184.547 39.36 181.987 39.36 178.84C39.36 174.467 40.1067 171.16 41.6 168.92C43.1467 166.68 45.28 165.187 48 164.44C50.7733 163.693 54.48 163.32 59.12 163.32C62.2133 163.32 65.36 163.453 68.56 163.72C71.76 163.987 74.2933 164.307 76.16 164.68V170.76C74.1333 170.44 71.6267 170.2 68.64 170.04C65.6533 169.827 62.88 169.72 60.32 169.72C57.3333 169.72 54.9333 169.853 53.12 170.12C51.3067 170.387 49.8933 170.84 48.88 171.48C47.76 172.12 47.04 172.973 46.72 174.04C46.4 175.107 46.24 176.627 46.24 178.6C46.24 180.787 46.4 182.387 46.72 183.4C47.04 184.36 47.6533 185.08 48.56 185.56C49.4667 185.987 50.96 186.307 53.04 186.52L66.48 188.04C69.68 188.36 72.16 188.92 73.92 189.72C75.68 190.52 76.96 191.96 77.76 194.04C78.5067 195.96 78.88 199.027 78.88 203.24C78.88 208.093 78.1333 211.72 76.64 214.12C75.1467 216.467 73.1467 217.987 70.64 218.68C68.1333 219.32 64.6933 219.64 60.32 219.64ZM93.8513 219V184.12H85.6113V178.2H93.8513V166.36H100.331V178.2H110.091V184.12H100.331V219H93.8513ZM135.011 219.64C129.304 219.64 125.224 219.08 122.771 217.96C120.317 216.787 118.744 214.84 118.051 212.12C117.411 209.347 117.091 204.84 117.091 198.6C117.091 192.36 117.411 187.88 118.051 185.16C118.744 182.387 120.317 180.44 122.771 179.32C125.224 178.147 129.304 177.56 135.011 177.56C140.664 177.56 144.717 178.147 147.171 179.32C149.624 180.44 151.171 182.387 151.811 185.16C152.504 187.88 152.851 192.36 152.851 198.6C152.851 204.84 152.504 209.347 151.811 212.12C151.171 214.84 149.624 216.787 147.171 217.96C144.717 219.08 140.664 219.64 135.011 219.64ZM135.011 213.72C138.904 213.72 141.597 213.373 143.091 212.68C144.584 211.987 145.491 210.733 145.811 208.92C146.184 207.053 146.371 203.613 146.371 198.6C146.371 193.587 146.184 190.173 145.811 188.36C145.491 186.493 144.584 185.213 143.091 184.52C141.597 183.827 138.904 183.48 135.011 183.48C131.117 183.48 128.397 183.827 126.851 184.52C125.357 185.213 124.424 186.493 124.051 188.36C123.731 190.173 123.571 193.587 123.571 198.6C123.571 203.613 123.731 207.053 124.051 208.92C124.424 210.733 125.357 211.987 126.851 212.68C128.397 213.373 131.117 213.72 135.011 213.72ZM165.023 178.2H170.783L171.103 183.96H171.583C172.649 181.507 174.329 179.827 176.623 178.92C178.969 178.013 181.769 177.56 185.023 177.56C189.076 177.56 192.169 178.173 194.303 179.4C196.436 180.627 197.929 182.733 198.783 185.72C199.689 188.653 200.143 192.92 200.143 198.52C200.143 204.173 199.689 208.493 198.783 211.48C197.929 214.467 196.436 216.573 194.303 217.8C192.223 219.027 189.183 219.64 185.183 219.64C181.716 219.64 178.889 219.213 176.703 218.36C174.569 217.507 172.969 216.013 171.903 213.88H171.503V235H165.023V178.2ZM182.463 213.32C185.929 213.32 188.383 213 189.823 212.36C191.316 211.72 192.303 210.413 192.783 208.44C193.316 206.467 193.583 203.187 193.583 198.6C193.583 194.013 193.316 190.733 192.783 188.76C192.303 186.787 191.316 185.48 189.823 184.84C188.383 184.147 185.929 183.8 182.463 183.8C179.743 183.8 177.583 184.173 175.983 184.92C174.383 185.667 173.263 186.813 172.623 188.36C172.143 189.533 171.823 190.893 171.663 192.44C171.556 193.987 171.503 196.04 171.503 198.6C171.503 201.213 171.556 203.267 171.663 204.76C171.769 206.253 172.036 207.507 172.463 208.52C173.156 210.227 174.303 211.453 175.903 212.2C177.503 212.947 179.689 213.32 182.463 213.32Z" fill="black"/>
</svg>
